<?xml version="1.0" encoding="UTF-8"?>
<svg id="Layer_2" data-name="Layer 2" xmlns="http://www.w3.org/2000/svg" viewBox="0 0 57.69 57.69">
  <defs>
    <style>
      .cls-1 {
        fill: #4ba9db;
      }

      .cls-2 {
        fill: #010101;
        stroke: #fff;
        stroke-miterlimit: 10;
      }
    </style>
  </defs>
  <g id="Layer_1-2" data-name="Layer 1">
    <path class="cls-2" d="M57.19.5H12.13C5.71.5.5,5.71.5,12.13v45.07h45.07c6.42,0,11.63-5.21,11.63-11.63V.5Z"/>
    <path class="cls-1" d="M25.41,6.49c.77-.39,1.69-.34,2.52-.22.38.15.71.4,1.08.57.12-.12.23-.24.35-.35.79-.38,1.69-.33,2.54-.26.93.31,1.59,1.26,1.64,2.21.06.77.41,1.48.53,2.25.23.79.24,1.62.43,2.41.91.86,2.38.61,3.3,1.47.06,0,.18.01.24.01.28.67-.35,1.2-.91,1.43-.72.25-1.43.58-2.18.74.11.34.23.69.23,1.05-1.19-.03-2.39.29-3.57.02-.52.03-1.15.18-1.43.67-.39.29-.88.2-1.33.23-.52.12-.77.62-.87,1.09.15.93,1.2,1.12,1.97,1.32,1.61.04,3.23,0,4.84.02,0,.06,0,.18,0,.24-.18.21-.34.46-.43.72-.17.57-.62,1.01-.75,1.59-.16,1.28-.28,2.69.5,3.81,1.01,1.49,2.74,2.24,4.23,3.16.83.3,1.58.83,2.46.97.08.08.17.16.26.24-.41.19-.86.35-1.32.34-.6.02-1.07.43-1.57.71-.25.38-.25.82,0,1.21.71.39,1.55.22,2.3.09.23,0,.47.1.65.25.41.36.98.42,1.5.54.9-.06,1.67-.49,2.46-.87,1.34.67,2.41,2.24,2.08,3.77-.37-.1-.58-.52-.97-.56-.6-.08-1.24-.09-1.81.12-.33.12-.44.49-.36.81.13.47.08.95.08,1.43-.76.56-1.73.75-2.46,1.37-.11,0-.22,0-.33,0-.51-.57-1.19-.97-1.85-1.34l-.28.14c-.27.59.03,1.2.1,1.79.05.04.14.12.18.16.08.39-.08.79-.55.66-.28-.27-.65-.44-.85-.79-.2-.32-.42-.73-.87-.65-.1.1-.2.19-.29.29-.22.62.04,1.23.35,1.76.16.29-.21.39-.44.38-.18-.21-.35-.43-.52-.65,0-.05-.02-.15-.03-.2-.2-.26-.35-.56-.51-.85-.39-.14-.99-.15-1.12.34-.24.73.55,1.2.57,1.9-.03.05-.09.14-.12.19-1.29.64-2.62,1.21-3.85,1.98-.42.1-.79.33-1.09.64.06.76.78,1.66,1.62,1.57.82-.33,1.38-1.36,2.34-1.34.27.57-.12,1.16.01,1.75.7.78,1.88.31,2.76.14.53.04.97-.26,1.43-.46.72-.19,1.2-.91,2-.87,1.05,0,1.87-.7,2.82-1.03,1.01.08,1.94-.48,2.55-1.24.13-.58.12-1.19-.03-1.76-.17-.42-.49-.76-.68-1.17.22-.52.86-.55,1.26-.23.11.17.24.32.37.47.25,0,.51,0,.76,0,.23,1.41.04,2.88.1,4.31.05,1.49.23,3.02.01,4.51-3.65-.02-7.3.01-10.95-.02-2.78-.14-5.57.02-8.35-.09-5.87,0-11.74,0-17.61,0-.07,0-.21,0-.29,0-.06-1.63.1-3.27-.11-4.88.01-1.5,0-3,0-4.5-.06-1.52.28-3.02.62-4.5.2-1.63.75-3.28,1.83-4.54.25-.18.49-.36.65-.63.55-.21.86-.75,1.42-.94.69-.4,1.41-.72,2.16-1,.78-.47,1.72-.4,2.56-.69.69-.11,1.32-.45,2.01-.56.04-.04.12-.11.17-.14,1.78-.64,3.21-2.39,3.2-4.31-.15-.51-.01-1.04-.1-1.55-.28-.43-.86-.62-1.01-1.17-.79-.79-1.17-1.99-1.14-3.09.14-.64.09-1.28.1-1.93-.38-.34-.89-.5-1.24-.87-.6-.17-1.02-.69-1.57-.97-.29-.11-.36-.42-.38-.7.22-.18.44-.35.66-.51.97-.17,1.95-.39,2.87-.75.32-.09.49-.38.67-.63,1.25,0,2.49,0,3.74,0,1.62-.22,3.28,0,4.91-.13.74-.11.71-1.09.35-1.55-.42-.26-.88-.51-1.39-.48-.56-.23-1.08-.56-1.69-.67-.59-.09-.99-.65-1.58-.7-1.17.21-2.37.06-3.55.1-.02-.12-.05-.24-.08-.35.22-.81.31-1.76,1.08-2.26M28.67,28.22c-.04.09-.08.17-.12.26.7.5,1.48.95,1.96,1.68.15.53.56.98.51,1.56.08.23-.29.45-.37.17-.66-1.35-1.41-2.91-3-3.33-.65-.1-1.75-.3-1.88.6.25.65,1.04.76,1.64.91.58.39,1.24.8,1.5,1.48.08.37.03.76-.08,1.12-.38.33-.69.9-1.27.82-.61.09-1.1-.35-1.63-.57-.79-.26-1.46-.88-2.33-.9-.81.03-1.64-.1-2.42.16-.4.15-.94.22-1.21-.2-.86-1.01-2.7-.55-3.08.68-.37.91.29,1.87-.03,2.79-.47.29-.87-.12-1.29-.27-.52-.05-1.04-.02-1.54.1-.04.04-.12.11-.17.15-.91.27-1.48,1.1-1.99,1.84-.32.36-.43,1.08.21,1.14,1.17-.56,2.39-1.24,3.74-1.1.12-.13.25-.27.38-.4.65.41,1.31.97,2.14.89.8.08,1.56-.26,2.24-.63.31-.41.76-.72,1.22-.93.87.21,1.81.27,2.56.79.45.35.99.56,1.56.63.3-.05.59-.12.89-.15.21.46.45.91.85,1.25.49.05.85.44,1.33.54.04.04.13.11.17.15,1.24.23,2.36,1.08,3.68.76.07-.27.09-.64-.19-.8-.86-.61-1.97-.76-2.77-1.47.08-.26.19-.64.54-.61.48-.08.82.31,1.17.57.89.46,1.69,1.07,2.49,1.65.64.46,1.45.29,2.17.17,0-.05,0-.16,0-.21-.19-.18-.37-.38-.53-.59-1.1-.69-2.06-1.77-3.43-1.91-.53,0-.79-.59-.69-1.05.15-.15.3-.3.45-.44.44.15.95.14,1.3-.2.2-.43.24-.92.39-1.37.16-.53-.16-1.02-.28-1.52-.52-.26-.72-.93-1.36-.97-.06-.68-.09-1.38-.54-1.94-.48-1.01-1.78-1.92-2.89-1.3M25.33,39.58c-.51.79-1.45.99-2.34.86-.03.32-.03.63-.06.95-1.01.36-2.09.58-3.05,1.09-.91.05-1.66.63-2.54.76-.46.07-.85-.25-1.22-.47-1.07-.58-2.26-.99-3.17-1.83-.1,0-.2,0-.29-.01-.23.29-.42.61-.54.96.21.54.82.7,1.13,1.14.26.15.49.32.73.5.17.62-.69.64-.91,1.09-.83.36-1.5,1.03-2.15,1.65.02.21.06.42.13.63,1.34.47,2.71-.33,4.01-.61.52-.04.98-.39,1.5-.36,1.51.64,3.09,1.08,4.6,1.72,1.04.2,1.96.8,3.02.95.62.25,1.32.52,1.98.27-.02-.59.15-1.15-.02-1.73-.68-.76-1.72-.96-2.54-1.51-.63-.16-1.19-.49-1.7-.89,0-.11,0-.22,0-.33.56-.68,1.37-1.06,2.02-1.61.46.01.95-.09,1.36.18.66.37,1.45.15,2.16.21.06-.13.13-.26.2-.39-.24-.82-1.05-1.17-1.57-1.78-.12-.52-.09-1.06-.27-1.56-.17.04-.33.08-.49.13"/>
  </g>
</svg>