<?xml version="1.0" encoding="UTF-8"?>
<svg id="Layer_2" data-name="Layer 2" xmlns="http://www.w3.org/2000/svg" viewBox="0 0 910.47 801.25">
  <defs>
    <style>
      .cls-1 {
        fill: #4ba8d9;
      }

      .cls-2 {
        fill: #fff;
      }
    </style>
  </defs>
  <g id="Layer_1-2" data-name="Layer 1">
    <path class="cls-1" d="M414.76,3.75c9.06-4.73,19.88-4.13,29.68-2.66,4.42,1.83,8.3,4.89,12.67,6.9,1.35-1.45,2.72-2.86,4.1-4.29,9.27-4.6,19.96-3.95,29.97-3.08,10.9,3.76,18.76,15.2,19.34,26.79.72,9.37,4.82,18,6.26,27.24,2.75,9.55,2.81,19.58,5.01,29.22,10.7,10.39,28.04,7.39,38.91,17.84.71.05,2.13.14,2.84.19,3.26,8.14-4.06,14.47-10.71,17.29-8.54,3.07-16.83,6.98-25.72,8.94,1.35,4.13,2.71,8.32,2.73,12.72-14.04-.37-28.14,3.48-42.06.2-6.16.35-13.57,2.15-16.85,8.06-4.61,3.56-10.34,2.36-15.7,2.76-6.07,1.48-9.11,7.49-10.27,13.23,1.82,11.26,14.12,13.55,23.15,16.04,18.98.52,38.01.08,57,.23-.02.71-.04,2.16-.05,2.87-2.13,2.61-3.96,5.5-5.01,8.74-1.99,6.86-7.35,12.21-8.87,19.24-1.94,15.54-3.36,32.62,5.85,46.2,11.89,18.08,32.32,27.07,49.78,38.31,9.81,3.62,18.55,10.12,29.01,11.78.99.98,2,1.96,3.03,2.95-4.88,2.34-10.09,4.26-15.57,4.08-7.11.22-12.61,5.2-18.49,8.61-2.95,4.59-2.9,9.99-.07,14.63,8.29,4.68,18.21,2.67,27.06,1.06,2.77.08,5.55,1.2,7.66,3.08,4.83,4.42,11.57,5.08,17.64,6.5,10.64-.68,19.69-5.99,29.04-10.52,15.82,8.14,28.33,27.1,24.49,45.61-4.33-1.25-6.83-6.25-11.45-6.79-7.06-.99-14.57-1.1-21.32,1.43-3.83,1.42-5.18,5.98-4.25,9.77,1.54,5.65.93,11.55.99,17.36-9,6.8-20.39,9.04-28.95,16.55-1.33.03-2.63.05-3.94.1-5.99-6.95-13.98-11.73-21.82-16.22-1.09.57-2.19,1.14-3.29,1.71-3.16,7.16.3,14.47,1.15,21.71.55.49,1.63,1.47,2.18,1.97.99,4.77-.91,9.52-6.43,7.96-3.31-3.21-7.63-5.39-10-9.51-2.39-3.87-4.91-8.84-10.25-7.88-1.16,1.17-2.3,2.36-3.44,3.53-2.62,7.49.46,14.88,4.09,21.38,1.93,3.55-2.51,4.73-5.14,4.56-2.11-2.6-4.11-5.27-6.15-7.9-.08-.59-.25-1.78-.33-2.36-2.35-3.19-4.14-6.77-5.97-10.27-4.59-1.66-11.67-1.88-13.16,4.08-2.87,8.79,6.49,14.59,6.65,23.07-.35.57-1.06,1.69-1.41,2.26-15.25,7.82-30.92,14.71-45.36,23.94-5,1.21-9.34,4.01-12.85,7.8.69,9.21,9.18,20.15,19.07,19.06,9.69-4.05,16.22-16.49,27.6-16.23,3.14,6.87-1.4,14.02.13,21.16,8.31,9.42,22.19,3.81,32.52,1.66,6.21.48,11.41-3.16,16.83-5.53,8.5-2.26,14.17-10.98,23.58-10.54,12.37-.03,22.03-8.47,33.15-12.45,11.86,1.02,22.82-5.86,30.07-14.97,1.55-7.05,1.38-14.39-.36-21.37-2.02-5.09-5.81-9.15-7.96-14.15,2.6-6.31,10.12-6.68,14.89-2.74,1.27,2.03,2.8,3.89,4.36,5.71,2.97-.01,5.95-.03,8.93-.03,2.77,17.09.45,34.87,1.19,52.24.57,18.1,2.75,36.6.16,54.62-43.01-.2-86.02.18-129.01-.19-32.74-1.69-65.57.25-98.32-1.04-69.14-.1-138.28.03-207.42-.07-.84-.03-2.53-.07-3.38-.1-.64-19.72,1.17-39.59-1.28-59.15.12-18.19.04-36.37.06-54.57-.64-18.43,3.26-36.58,7.27-54.47,2.4-19.74,8.81-39.74,21.58-54.97,2.91-2.14,5.77-4.41,7.61-7.63,6.44-2.5,10.18-9.05,16.7-11.44,8.14-4.84,16.6-8.76,25.44-12.06,9.13-5.71,20.25-4.86,30.13-8.4,8.14-1.33,15.52-5.46,23.66-6.76.48-.44,1.46-1.3,1.94-1.75,21-7.77,37.77-28.92,37.73-52.22-1.72-6.14-.15-12.58-1.15-18.79-3.35-5.27-10.1-7.51-11.88-14.17-9.29-9.55-13.76-24.1-13.41-37.38,1.64-7.69,1.09-15.55,1.18-23.36-4.5-4.1-10.48-6.04-14.63-10.57-7.12-2.08-12.01-8.32-18.5-11.72-3.35-1.39-4.26-5.11-4.46-8.45,2.52-2.17,5.17-4.19,7.81-6.21,11.45-2.05,22.91-4.78,33.76-9.09,3.77-1.11,5.72-4.66,7.88-7.68,14.69.04,29.38.04,44.07,0,19.11-2.68,38.63,0,57.79-1.64,8.77-1.28,8.32-13.14,4.08-18.8-4.99-3.08-10.33-6.19-16.39-5.81-6.56-2.79-12.74-6.81-19.9-8.07-6.9-1.13-11.6-7.9-18.59-8.42-13.76,2.52-27.87.71-41.79,1.25-.3-1.43-.59-2.86-.92-4.27,2.62-9.76,3.63-21.29,12.77-27.42M453.21,267.04c-.49,1.04-.97,2.07-1.46,3.1,8.26,6.1,17.44,11.52,23.11,20.41,1.75,6.42,6.57,11.88,6,18.9.95,2.76-3.44,5.49-4.37,2.08-7.75-16.35-16.66-35.27-35.37-40.29-7.71-1.17-20.66-3.68-22.15,7.3,2.97,7.84,12.28,9.22,19.33,11.02,6.88,4.73,14.57,9.73,17.69,17.97.97,4.47.33,9.16-.96,13.51-4.45,3.98-8.12,10.86-15,9.93-7.23,1.06-12.97-4.22-19.2-6.94-9.32-3.15-17.17-10.71-27.41-10.95-9.5.36-19.28-1.22-28.47,1.94-4.75,1.77-11.1,2.67-14.21-2.44-10.19-12.21-31.77-6.63-36.26,8.2-4.37,11.05,3.41,22.62-.3,33.79-5.51,3.49-10.27-1.4-15.22-3.32-6.07-.59-12.18-.19-18.1,1.24-.49.45-1.46,1.35-1.95,1.81-10.76,3.24-17.43,13.39-23.47,22.33-3.76,4.41-5.03,13.13,2.53,13.83,13.84-6.74,28.09-14.99,44.07-13.35,1.47-1.61,2.95-3.21,4.43-4.82,7.67,5,15.43,11.71,25.19,10.79,9.46,1.02,18.32-3.19,26.4-7.67,3.69-4.99,8.91-8.7,14.42-11.32,10.2,2.6,21.35,3.21,30.2,9.59,5.31,4.17,11.73,6.77,18.37,7.65,3.51-.63,7-1.45,10.54-1.85,2.42,5.61,5.34,11.07,9.95,15.16,5.83.61,10.01,5.3,15.62,6.53.5.46,1.49,1.39,1.99,1.86,14.61,2.81,27.85,13.1,43.29,9.22.86-3.21,1.05-7.76-2.24-9.66-10.14-7.39-23.15-9.19-32.66-17.76.91-3.19,2.23-7.71,6.36-7.32,5.72-1,9.68,3.74,13.78,6.87,10.47,5.6,19.86,13,29.3,20.04,7.48,5.6,17.1,3.48,25.57,2.06-.02-.65-.06-1.94-.08-2.6-2.28-2.19-4.41-4.57-6.21-7.18-12.94-8.3-24.26-21.41-40.39-23.12-6.3-.01-9.37-7.11-8.17-12.69,1.77-1.8,3.57-3.58,5.35-5.38,5.16,1.86,11.24,1.72,15.29-2.47,2.33-5.27,2.85-11.12,4.53-16.61,1.86-6.37-1.84-12.4-3.3-18.42-6.13-3.17-8.44-11.28-16.03-11.71-.66-8.23-1.1-16.75-6.34-23.54-5.61-12.18-20.99-23.23-34-15.7M413.8,404.62c-5.99,9.52-17.12,11.97-27.52,10.45-.32,3.83-.38,7.69-.77,11.52-11.94,4.38-24.65,7.06-35.87,13.22-10.72.56-19.53,7.62-29.97,9.16-5.47.88-10.06-2.99-14.4-5.73-12.62-7-26.57-12.05-37.32-22.1-1.15-.05-2.3-.11-3.44-.19-2.69,3.52-4.97,7.44-6.32,11.7,2.48,6.58,9.64,8.45,13.33,13.87,3.02,1.79,5.81,3.93,8.63,6.04,2.04,7.46-8.09,7.77-10.67,13.25-9.79,4.35-17.63,12.5-25.35,19.98.22,2.57.75,5.12,1.48,7.59,15.8,5.72,31.9-4.01,47.26-7.44,6.14-.45,11.51-4.77,17.7-4.39,17.78,7.69,36.43,13.03,54.2,20.8,12.27,2.46,23.08,9.75,35.59,11.45,7.27,3.01,15.5,6.36,23.32,3.3-.22-7.12,1.78-13.96-.18-21-8.02-9.18-20.2-11.68-29.94-18.32-7.4-1.97-14.04-5.92-19.97-10.76,0-1.34,0-2.67.01-3.99,6.59-8.27,16.1-12.81,23.79-19.47,5.39.12,11.2-1.06,15.98,2.21,7.8,4.46,17.02,1.83,25.5,2.55.76-1.6,1.51-3.2,2.33-4.77-2.79-9.9-12.36-14.2-18.47-21.55-1.44-6.24-1.11-12.8-3.21-18.93-1.94.46-3.83,1.02-5.73,1.56"/>
    <path class="cls-1" d="M601.41,459.2c6.34-.74,13.61-5.41,19.23-.17-.03,2.15-.05,4.31-.05,6.48-11.67,11.71-26.88,20.17-43.06,23.17-2.48-.88-4.7-2.33-6.9-3.73-.49-2.22-1.07-4.4-1.61-6.58,4.87-3.74,10.21-6.84,14.86-10.86,6.15-1.94,11.99-4.98,17.51-8.31"/>
    <path class="cls-2" d="M314.54,582.77c1.37.6,2.68,1.37,4.02,2.08,8.41,21.47,17.71,42.6,26.85,63.74,2.18,7.17,5.99,13.59,9.33,20.21,1.24,2.87,4.86,2.19,7.3,3.03-.07.84-.24,2.52-.32,3.35-11.23.05-22.46-.02-33.69.02,0-.84-.03-2.52-.04-3.35,3.06-.7,6.67-.16,9.23-2.31.37-8.4-6.23-14.86-7.31-22.97-11.41-.06-22.83-.01-34.24-.03-2.96,6.72-6.17,13.56-6.63,21.05,1.06,4.31,5.94,3.68,9.28,4.27,0,.84-.04,2.51-.05,3.34-8.52-.08-17.04.1-25.56-.02-1.58.4-3.42-2.81-1.42-3.23,6.21-1.38,10.5-7.21,12.1-13.27,1.45-5.81,5.26-10.62,6.85-16.36,2.05-8.19,7.59-14.9,9.18-23.25,5.55-11.86,10.47-24.03,15.12-36.3M306.8,619.25c-2.07,6.88-6.21,12.85-8.25,19.75,9.27.19,18.55.04,27.82.09-3.83-11.71-9.95-22.49-13.2-34.35-2.8,4.47-4.86,9.4-6.37,14.5"/>
    <path class="cls-2" d="M591.1,584.1c1.09-1.47,3.48-1.42,4.6-.01,8.88,23.35,19.6,45.8,28.91,68.95,3.66,5.77,3.93,13.5,9.73,17.82,1.56.18,3.12.37,4.7.57,0,1.25,0,2.5,0,3.76h-33.9c0-1.29.03-2.57.06-3.83,3.76.29,8.08.25,9.05-4.36-1.46-7.24-4.19-13.99-7.59-20.47-11.07,0-22.14.01-33.21,0-2.76,7.19-7.24,14.05-7.47,21.98,2.29,2.2,5.29,2.95,8.36,3.03,0,1.21.02,2.43.04,3.65h-25.69c-.01-1.27-.01-2.54,0-3.79,1.6-.17,3.21-.34,4.83-.5,8.51-10.83,11.64-24.82,17.88-36.97,5.88-16.89,14.12-32.83,19.68-49.83M590.09,605.79c-5.62,10.73-9.1,22.3-14.1,33.3,9.49-.01,18.98.07,28.46-.06-5.78-10.65-8.51-22.63-14.37-33.23"/>
    <path class="cls-2" d="M352.08,584.99c8.27-.06,16.54-.01,24.81-.02,27.54,31.09,56.09,61.63,84.27,92.43,15.65-20.24,33.63-38.42,49.88-58.16,10.75-11.09,19.95-23.31,30.9-34.27,6.47-.02,12.93,0,19.41,0-.83,1.4-1.64,2.82-2.45,4.25-3.92-.33-8.2.12-10.91,3.42-4.16,6.15-5.34,13.74-6.51,20.97-2.29,8.2-4.69,16.39-7.01,24.58-.86,9.7-5.53,18.55-6.14,28.3.5,1.46,1.23,2.84,1.92,4.24,2.76.32,5.5.78,8.23,1.34,0,.78-.01,2.34-.02,3.13h-33.06c.5-1.08,1.02-2.15,1.53-3.23,2.88-.52,5.8-.9,8.72-1.18,10.3-12.21,10.01-29.25,15.06-43.82,2.9-7.54,3.09-15.76,5.94-23.31-16.29,18.1-32.28,36.87-48.38,54.72-1.94,5.18-8.38,6.58-9.69,12.26-8.41,6.82-14.22,16.38-21.9,24.01-5.56-5.19-9.36-12.2-15.55-16.6-.92-3-2.88-5.37-5.48-6.95-3.23-1.8-3.5-6.18-6.59-8.08-2.71-1.88-4.99-4.36-6.15-7.56-16.09-16.06-30.02-34.41-45.8-50.83,1.38,12.85,7.35,24.59,8.76,37.41,2.7,8.95,4.71,18.26,9.15,26.49,3.25,3.1,7.99,2.66,12.06,3.43,0,.8,0,2.42,0,3.23-10.49-.02-20.99-.01-31.48-.01-.51-1.05-1.03-2.1-1.55-3.13,3.65-.61,7.67-.65,10.5-3.5.58-10.54-4.28-20.19-6.37-30.28-2.02-13.32-7.64-25.72-9.56-39.07-.64-6.48-7.01-10.39-12.91-10.05-2.27.18-2.59-2.7-3.62-4.16"/>
    <path class="cls-2" d="M646.22,584.95c12.64.05,25.29-.06,37.93.04.01,1.33.02,2.65.03,3.99-4.01-.12-7.79,1.23-11.03,3.64-2.08,11.21-1.05,22.64-1.24,33.98,11.74-10.88,25.77-20.22,33.32-34.93-2.59-1.57-5.49-2.27-8.4-2.84-2.52-.41-1.36-4.15.82-3.86,11.15-.1,22.31.03,33.48,0,0,1.35,0,2.71.02,4.06-10.78,0-19.22,7.7-25.59,15.89-1.4,1.92-3.49,3-5.53,3.99-4.12,5.3-9.26,9.68-14.3,14.01,10.44,11.78,21.02,23.37,31.53,35.06,5.07,6.67,11.47,13.95,20.37,13.89-.01.83-.05,2.49-.05,3.32-13.68,0-27.37,0-41.06,0-.02-.85-.05-2.56-.07-3.41,3.18-.45,6.38-.69,9.6-1-1.41-9.61-11.26-14.23-15.78-22.08-5.64-4.59-9.34-11.08-14.78-15.92-1.18,1.2-2.37,2.39-3.56,3.58.43,11.18-1.62,22.77,2.24,33.52,3.02,1.36,6.29,1.55,9.54,1.49.06,1.25.15,2.53.23,3.8-12.57,0-25.15-.01-37.73,0,0-1.3.01-2.59.03-3.87,3.08-.08,6.15-.25,9.24-.4,3.63-6.85,3.15-14.74,3.08-22.27-.65-18.72,1.42-37.67-1.3-56.24-3.37-2.02-7.07-3.51-11.03-3.28-.01-1.4-.01-2.79,0-4.18"/>
    <path class="cls-2" d="M1.82,586.47c14.27-1.05,28.61-.13,42.92-.47,17.87.27,37.27,10.64,42.33,29.49,2.04,13.38,3,28.88-5.72,40.14-7.38,11.91-21.07,18.6-34.56,18.5-15.37.3-30.77-.64-46.11.5l-.69.08c.53-5.57,7.35-2.09,9.97-5.67.98-1.74,1.55-3.7,2.07-5.63,2.03-13.62.34-27.56.88-41.31-.37-8.65.97-17.47-.93-25.99-.67-3.72-3.63-5.82-6.89-6.93-1.26-.69-2.33-1.67-3.29-2.73M26.2,592.32v.63c-2.22,16.58-.34,33.63-.96,50.4.41,7.95-.99,16.11.93,23.91.36.3,1.08.9,1.43,1.2,11.28,3.29,23.05-1.28,33.09-6.57,14.3-11.84,14.7-33.31,9.62-50.12-7.83-16.41-27.45-23.23-44.12-19.45"/>
    <path class="cls-2" d="M97.24,586.34c14.65-.77,29.33-.11,43.99-.34,7.42-.52,14.58,3.08,20.34,7.63,6.68,6.98,6.75,18.68,3.04,27.21-5.16,6.01-12.31,10.98-20.38,10.94,10.3,13.16,20.31,26.45,31.11,39.05,1.96.16,3.92.35,5.88.54.01,1.26.03,2.52.05,3.81-7.16.02-14.3-.05-21.45.04-5.59-7.3-10.58-15.27-17.17-21.64-4.57-6.91-9.92-13.36-15.22-19.75-1.56-.02-3.11-.05-4.66-.05.22,10.46-.55,21,.41,31.41.27,5.91,6.6,6.16,10.92,6.55-.02.86-.04,2.58-.06,3.45-12.32,0-24.63,0-36.95,0-.01-.85-.04-2.54-.05-3.39,2.68-.39,5.38-.7,8.07-.98,1.21-1.76,2.55-3.46,3.37-5.46,2.16-15.29.34-30.98.93-46.44-.39-8.08.98-16.35-.9-24.26-1.28-3.34-4.83-4.23-7.64-5.69-1.24-.85-2.44-1.74-3.63-2.64M122.78,592.27c-.04,12.12-.06,24.25,0,36.39,6.98-1.92,14.75-.8,21.13-4.83,9.16-4.43,9.23-17.6,5.16-25.74-6.47-8.22-17.35-5.86-26.3-5.82"/>
    <path class="cls-2" d="M188.47,586.04c23.11-.13,46.23.21,69.33-.18h.48c-.11,6.84-.03,13.68-.05,20.54-7.13,1.23-5.45-8.59-8.52-12.83-11.91-3.18-24.46-.64-36.63-1.51-.06,10.73.08,21.45-.06,32.18l-.03,1.06c8.45-.46,17.09,1.1,25.38-1.02,6.24-.32,7.1-6.53,7.69-11.72,1.66,0,3.33-.02,5,0,0,10.69,0,21.38,0,32.07-7.58,1.24-4.7-9.38-9.44-12.87-9.5-.75-19.01-.38-28.51-.42,0,11.61-.08,23.23.05,34.87.82.84,1.64,1.7,2.47,2.57,11.21-.53,23.08,1.99,33.66-2.94,5.01-3.2,8.85-8.11,10.68-13.92,1.57-.04,3.13-.07,4.7-.07-1.35,7.72-4.36,15-5.58,22.75-23.5-1.09-47.1-.11-70.64-.48,0-.65,0-1.96.02-2.62,4.78.41,10-1.46,10.43-7.12,1.93-13.6.33-27.48.84-41.2-.4-8.76,1.01-17.7-.91-26.33-.56-2.15-1.43-4.2-2.21-6.26-2.74-.39-5.45-1.02-8.18-1.49.01-.77.03-2.28.04-3.05"/>
    <path class="cls-2" d="M742.91,586.31c23.03-.94,46.14.4,69.14-.67,1.62,6.27,1.91,12.79,1.4,19.24-.9,1.36-2.57,1.33-3.93,1.7-.65-5.35-2.8-10.35-6.54-14.15-10.96-.85-21.97.08-32.93-.53-3.81,9.96-.64,21.67-1.67,32.33v1.06c8.44-.47,17.1,1.12,25.4-1.02,5.87-.91,7.48-6.48,7.52-11.85,1.46.15,2.92.32,4.39.49-.86,10.11-.12,20.31-.36,30.46v1.03c-1.35,0-2.68,0-4.01,0-.32-3.08-.86-6.11-1.35-9.16-1.11-1.15-2.2-2.31-3.27-3.46-9.41-.91-18.87-.35-28.31-.47.96,12.44-2.23,25.59,2.08,37.5,11.25-.8,23.31,2.26,33.8-3.25,5.95-2.29,7.96-9.13,11.84-13.75,1.3,0,2.6,0,3.91.02-2.46,7.08-2.72,14.74-5.45,21.74-20.15,1.3-40.38.13-60.56.6-3.79-.15-8.15.87-11.24-2.02,3.36-.82,6.74-1.49,10.09-2.42,2.48-7.86,1.23-16.19,1.51-24.29-.24-17.68.51-35.4-.44-53.06-2.47-1.17-5.12-1.93-7.46-3.35-1.22-.88-2.39-1.81-3.55-2.74"/>
    <path class="cls-2" d="M825.88,586.03c14.7-.07,29.41.02,44.11-.02,9.74.06,20.33,5.4,24.66,14.77,1.32,5.74,1.01,11.95-.22,17.7-5.04,7.49-12.79,13.03-21.82,13.49,10.66,12.89,20.04,26.91,31.73,38.9,1.94.2,3.89.38,5.85.56,0,1.24-.02,2.5-.02,3.76-7.41,0-14.83,0-22.24,0-7.24-9.93-14.47-20.21-22.85-29.04-1.81-5.05-6.56-7.86-9.25-12.3-1.78-.03-3.57-.05-5.35-.05.25,11.22-.84,22.54,1.25,33.63,2.53,3.82,6.89,4.28,11.02,3.93,0,1.26.03,2.55.06,3.83h-36.99c0-1.25.02-2.5.05-3.73,3.08-.05,6.12-.61,9.01-1.75,1.14-4.1,2.5-8.25,2.25-12.57-.16-20.09.33-40.21-.26-60.27-.11-5.85-6.35-7.81-11.04-7.79.01-.76.03-2.29.04-3.05M851.79,592.02c-2.8,11.93-.64,24.48-1.27,36.66,9.17-1.61,19.65-1.35,26.83-8.49,4.03-5.9,3.02-13.5,1.75-20.15-2.97-2.64-5.65-5.89-9.33-7.43-5.94-1.04-12-.31-17.98-.59"/>
    <path class="cls-2" d="M10.97,712.61c2.1-2.75,6.17-.83,9.13-1.36,8.5.27,20.22-1.74,24.63,7.92,0,7.33,1.66,16.03-5.35,20.69-7.45,2.02-15.18.85-22.77,1.14-.03,6.01-.05,12.02.02,18.03-1.93,0-3.86,0-5.79.02.11-15.49-.17-30.98.11-46.45M16.63,717.65c-.04,5.74-.04,11.49.01,17.25,6.93-.06,13.86.3,20.79-.23,3.05-4.78,2.65-10.86.93-16.06-7.14-1.66-14.49-.73-21.74-.96"/>
    <path class="cls-2" d="M99.13,711.26c9.36.33,18.96-1.07,28.1,1.66,8.35,3.95,8.87,17.82,2.63,23.85-.87.03-2.61.08-3.48.11,1.48.75,2.97,1.5,4.46,2.22,3.64,6.02,1.78,13.27,2.18,19.95-2.06-.01-4.11-.01-6.17,0-.33-5.51.91-11.37-1.2-16.6-6.19-4.42-14.31-1.87-21.36-2.5,0,6.37,0,12.74,0,19.11-1.73-.01-3.44-.01-5.15,0,.01-15.93.01-31.85,0-47.79M104.29,717.65c0,5.79,0,11.59,0,17.39,6.72-.2,13.54.69,20.17-.71,4.29-4.01,3.82-10.79,1.24-15.6-6.85-2.25-14.32-.55-21.41-1.07"/>
    <path class="cls-2" d="M189.5,714.55c9.64-4.19,22.16-5.65,31.22.47,5.69,10.96,3.69,24.11,2.5,35.98-1.18,1.87-2.2,3.84-3.16,5.85-7.88,3.6-16.82,2.75-25.16,1.92-7.31-1.2-8.79-10.4-8.56-16.72.8-9.2-2.14-19.29,3.16-27.5M192.86,718.66c-1.85,10.78-2.19,22.16-.03,32.9,8.04,2.98,17.73,3.61,25.31-1.07.55-10.6,2.91-21.64-1.27-31.86-7.9-1.41-16.11-1.46-24.01.03"/>
    <path class="cls-2" d="M277.73,711.26c9.47-.08,18.93-.27,28.31,1.12,3.07,2.84,8.2,4.78,8.21,9.75.73,8.64.68,17.39,0,26.04-.28,6.66-6.93,10.88-12.86,10.9-7.88-.02-15.77-.08-23.66-.04,0-15.93,0-31.85,0-47.78M283.56,717.66c-.03,11.65-.03,23.32,0,34.99,7.69-.15,15.43.5,23.07-.64,3.95-10.68,4.1-22.93-.03-33.58-7.64-1.09-15.36-.74-23.04-.77"/>
    <path class="cls-2" d="M369.41,711.27c1.94-.01,3.89-.02,5.85-.01.35,13.45-1.01,27.02,1.25,40.34,6.96,3.35,15.14,2.65,22.2-.05,2.55-13.17.52-26.9,1.16-40.28,1.72,0,3.43,0,5.15,0-.11,13.41.16,26.82-.1,40.23-3.93,9.72-15.21,8.15-23.52,7.71-5.46-.03-11.55-3.67-11.96-9.77-.07-12.72.08-25.43-.04-38.15"/>
    <path class="cls-2" d="M460.54,719c3.36-4.69,8.47-7.9,14.24-7.77,6.35.13,14-1.31,18.92,3.95,2.03,3.41,1.51,7.74,1.73,11.59-2.07,0-4.15.03-6.22.06.11-3.23.14-6.6-1.97-9.22-6.79.18-13.63-.44-20.32,1.02-2.4,10.4-1.45,21.33-.08,31.83,6.33,4.95,14.82,3.54,22.01,1.78,1.51-2.8,1.45-6.03,1.39-9.13,1.7,0,3.42,0,5.14.01-.12,5.24,1.56,13.32-4.91,15.23-7.54,1.26-15.55,1.97-23.04-.04-3.5-.74-5.34-4.3-6.21-7.55-2.74-10.35-2.15-21.26-.66-31.76"/>
    <path class="cls-2" d="M702.42,711.9c8.13-1.01,18.05-2.36,24.63,3.85,5.49,10.83,3.34,23.78,2.23,35.44-5.54,11.22-19.38,8.18-29.29,7.64-12.13-4.78-7.87-20.26-8.64-30.58-1.48-7.55,3.54-15.45,11.07-16.36M698.87,718.56c-1.73,10.94-2.47,22.62.4,33.39,7.43,2.96,15.44,1.55,23.07.49,1.86-11.06,3.6-23.07-.23-33.83-7.53-1.75-15.62-1.21-23.25-.05"/>
    <path class="cls-2" d="M783.76,711.27c2.72-.02,5.44-.03,8.17-.03,8.16,13.8,15.87,27.74,24.6,41.12.18-13.7.04-27.39.07-41.1,1.7,0,3.42,0,5.15,0-.02,15.93,0,31.85,0,47.79-2.99-.01-5.95-.01-8.92,0-7.78-13.72-15.81-27.3-23.82-40.85-.26,13.61-.05,27.23-.1,40.85-1.74-.01-3.45-.01-5.15,0,.01-15.93.01-31.85,0-47.78"/>
    <path class="cls-2" d="M881.32,712.39c8.01-.95,16.94-3.05,24.37,1.26,3.52,3.12,3.64,8.07,3.35,12.49-1.94,0-3.87,0-5.8,0-.31-2.87,1.11-7.62-2.79-8.22-5.95-.48-12.05-.61-17.92.68-2.1,4.35-1.41,9.32,2.02,12.7,7.71,1.46,16.56-.25,23.33,4.38,4.11,6.99,4.01,20.61-5.41,23.07-6.55,1.11-13.24.82-19.8.1-6.03-2.26-7.39-9.6-6.5-15.43,1.62-.01,3.25-.01,4.91,0,.14,2.99.71,5.95,1.67,8.8,6.59,2.05,13.65,2.03,20.28.18,1.04-4.34,1.16-8.94-.1-13.25-7.64-2.79-16.74.8-23.52-4.69-5.23-6.33-4.41-16.76,1.9-22.07"/>
    <path class="cls-2" d="M545.63,712.52c11.3-.38,22.61-.1,33.91-.18h1c0,1.85.03,3.71.06,5.57-4.88.74-9.84.52-14.76.51-.06,13.53-.04,27.08,0,40.62-1.95,0-3.89,0-5.83.02.01-13.54.02-27.09,0-40.63-4.79-.02-9.58-.03-14.36,0-.01-1.97-.02-3.95-.01-5.9"/>
    <path class="cls-2" d="M632.89,712.33c1.35-.01,2.71-.01,4.09,0,.02,15.56.02,31.13,0,46.7-1.38,0-2.73,0-4.09,0-.02-15.57-.02-31.14,0-46.7"/>
    <path class="cls-2" d="M10.84,795.14c299.78-.02,599.57-.02,899.35,0-.02,2.03-.03,4.06-.04,6.11-299.76-.03-599.51-.03-899.27,0-.02-2.05-.03-4.09-.04-6.11"/>
  </g>
</svg>