<?xml version="1.0" encoding="UTF-8"?>
<svg id="Layer_2" data-name="Layer 2" xmlns="http://www.w3.org/2000/svg" viewBox="0 0 4441.07 1144.67">
  <defs>
    <style>
      .cls-1 {
        fill: #fff;
      }

      .cls-2 {
        fill: #47a7db;
      }
    </style>
  </defs>
  <g id="Layer_2-2" data-name="Layer 2">
    <g id="Layer_1-2" data-name="Layer 1-2">
      <rect class="cls-1" y="519.48" width="801.59" height="625.19"/>
      <rect class="cls-1" width="4441.07" height="1144.66" rx="366.88" ry="366.88"/>
      <rect class="cls-1" x="3665.56" width="775.51" height="438.42"/>
    </g>
    <g id="Layer_1-2-2" data-name="Layer 1-2">
      <g>
        <g>
          <g>
            <path d="M2222.31,200.59c4.48,1.79,8.97,4.48,14.35,7.18,29.6,74.45,61.89,147.1,94.18,220.65,7.18,25.11,20.63,46.64,32.29,69.96,4.48,9.87,17.04,7.18,25.11,10.76,0,2.69,0,8.97-.9,11.66h-117.5v-11.66c10.76-2.69,23.32,0,32.29-8.07.9-28.7-21.53-51.12-25.11-79.83h-119.29c-10.76,23.32-21.53,46.64-23.32,72.65,3.59,15.25,20.63,12.56,32.29,14.35v11.66h-89.69c-5.38,1.79-11.66-9.87-5.38-10.76,21.53-4.48,36.77-25.11,42.16-45.74,5.38-19.73,17.94-36.77,24.22-56.51,7.18-28.7,26.91-51.12,32.29-80.72,19.73-41.26,36.77-83.41,52.92-125.57h-.9ZM2195.4,326.16c-7.18,24.22-21.53,44.85-28.7,68.17h96.87c-13.45-40.36-34.98-78.03-45.74-118.39-9.87,15.25-17.04,32.29-22.42,50.23h0Z"/>
            <path d="M3188.3,205.07c3.59-5.38,12.56-4.48,16.15,0,31.39,80.72,68.17,158.76,101.35,238.58,12.56,19.73,13.45,46.64,34.08,61.89,5.38,0,10.76.9,16.15,1.79v12.56h-118.39v-13.45c13.45.9,27.8,0,31.39-15.25-5.38-25.11-14.35-48.43-26.91-70.86h-115.7c-9.87,25.11-25.11,48.43-26.01,76.24,8.07,8.07,18.84,9.87,29.6,10.76v12.56h-89.69v-13.45c5.38,0,11.66-.9,17.04-1.79,29.6-37.67,40.36-86.11,62.78-127.36,20.63-58.3,49.33-113.91,69.06-172.21h-.9ZM3184.71,279.52c-19.73,36.77-31.39,77.14-49.33,114.81h99.56c-19.73-36.77-29.6-78.03-50.23-114.81h0Z"/>
            <path d="M2353.26,207.76h87c95.97,107.63,195.53,213.47,294.19,319.31,54.71-69.96,117.5-132.75,174-200.91,37.67-38.57,69.96-80.72,107.63-118.39h68.17c-2.69,4.48-5.38,9.87-8.97,14.35-13.45-.9-28.7,0-37.67,11.66-14.35,21.53-18.84,47.54-22.42,72.65-8.07,28.7-16.15,56.51-24.22,85.21-2.69,33.19-19.73,64.58-21.53,97.76,1.79,5.38,4.48,9.87,6.28,14.35,9.87.9,18.84,2.69,28.7,4.48v10.76h-115.7c1.79-3.59,3.59-7.18,5.38-10.76,9.87-1.79,20.63-2.69,30.5-4.48,35.88-42.16,34.98-101.35,52.92-151.58,9.87-26.01,10.76-54.71,20.63-80.72-56.51,62.78-113.01,127.36-168.62,189.25-7.18,17.94-29.6,22.42-34.08,42.16-29.6,23.32-49.33,56.51-76.24,83.41-19.73-17.94-32.29-42.16-54.71-57.4-3.59-10.76-9.87-18.84-18.84-24.22-11.66-6.28-12.56-21.53-23.32-27.81-9.87-6.28-17.04-15.25-21.53-26.01-56.51-55.61-104.94-119.29-159.65-175.8,4.48,44.85,26.01,85.21,30.5,129.16,9.87,30.49,16.15,62.78,32.29,91.49,11.66,10.76,27.8,8.97,42.16,11.66v10.76h-110.32c-1.79-3.59-3.59-7.18-5.38-10.76,12.56-1.79,26.91-1.79,36.77-11.66,1.79-36.77-15.25-69.96-22.42-104.94-7.18-45.74-26.91-88.79-33.19-135.44-2.69-22.42-24.22-35.88-44.85-34.98-8.07,0-8.97-8.97-12.56-14.35h0l-.9,1.79Z"/>
            <path d="M3381.14,207.76h132.75v13.45c-14.35,0-26.91,4.48-38.57,12.56-7.18,38.57-3.59,78.03-4.48,117.5,41.26-37.67,89.69-69.96,116.6-121.09-8.97-5.38-18.84-8.07-29.6-9.87-8.97-1.79-4.48-14.35,2.69-13.45h116.6v14.35c-37.67,0-67.27,26.91-89.69,54.71-4.48,6.28-12.56,10.76-19.73,13.45-14.35,17.94-32.29,33.19-50.23,48.43,36.77,40.36,73.55,80.72,110.32,121.09,17.94,23.32,40.36,48.43,70.86,48.43v11.66h-143.51v-11.66c10.76-1.79,22.42-2.69,33.19-3.59-5.38-33.19-39.47-49.33-54.71-76.24-19.73-16.15-32.29-38.57-52.02-54.71-4.48,4.48-8.07,8.07-12.56,12.56,1.79,38.57-5.38,78.93,8.07,115.7,10.76,4.48,22.42,5.38,33.19,5.38v13.45h-131.85v-13.45c10.76,0,21.53,0,32.29-1.79,12.56-23.32,10.76-51.12,10.76-77.14-2.69-64.58,5.38-130.05-4.48-194.63-11.66-7.18-25.11-12.56-38.57-11.66v-14.35h0l2.69.9Z"/>
            <path d="M1130.75,213.14c50.23-3.59,99.56,0,149.79-1.79,62.78.9,130.05,36.77,147.99,102.25,7.18,46.64,10.76,99.56-19.73,139.02-26.01,41.26-73.55,64.58-121.09,63.68-53.82.9-107.63-1.79-161.45,1.79h-2.69c1.79-18.84,26.01-7.18,34.98-19.73,3.59-6.28,5.38-12.56,7.18-19.73,7.18-46.64.9-95.08,2.69-142.61-.9-29.6,3.59-60.09-3.59-89.69-2.69-12.56-12.56-19.73-24.22-24.22-4.48-2.69-8.07-5.38-11.66-9.87h0l1.79.9ZM1215.96,232.88v1.79c-8.07,57.4-.9,116.6-3.59,174,1.79,27.81-3.59,55.61,3.59,82.52.9.9,3.59,2.69,5.38,4.48,39.47,11.66,80.72-4.48,115.7-22.42,50.23-41.26,51.12-114.81,33.19-173.11-26.91-56.51-95.97-80.72-154.27-67.27h0Z"/>
            <path d="M1463.51,212.25c51.12-2.69,102.25,0,153.37-.9,26.01-1.79,51.12,10.76,70.86,26.01,23.32,24.22,23.32,64.58,10.76,94.18-17.94,20.63-43.05,37.67-70.86,37.67,35.88,45.74,70.86,91.49,108.53,135.44,7.18,0,13.45.9,20.63,1.79v13.45h-75.34c-19.73-25.11-36.77-52.92-60.09-74.45-16.15-24.22-34.98-46.64-52.92-68.17h-16.15c0,35.88-1.79,72.65,1.79,108.53.9,20.63,23.32,21.53,38.57,22.42v11.66h-129.16v-11.66c8.97-1.79,18.84-2.69,27.8-3.59,4.48-6.28,8.97-11.66,11.66-18.84,7.18-52.92.9-106.73,3.59-160.55-1.79-27.81,3.59-56.51-3.59-84.31-4.48-11.66-17.04-14.35-26.91-19.73-4.48-2.69-8.97-6.28-12.56-8.97h0ZM1553.2,232.88v125.57c24.22-6.28,51.12-2.69,73.55-17.04,32.29-15.25,32.29-60.99,17.94-88.79-22.42-28.7-60.99-20.63-91.49-19.73h0Z"/>
            <path d="M1781.92,211.35h243.96v70.86c-25.11,4.48-18.84-29.6-29.6-43.95-41.26-10.76-85.21-1.79-128.26-5.38v114.81c29.6-1.79,59.2,3.59,88.8-3.59,21.53-.9,25.11-22.42,26.91-40.36h17.04v111.22c-26.01,4.48-16.15-32.29-33.19-44.85-33.19-2.69-66.37-.9-99.56-1.79v120.19c2.69,2.69,5.38,6.28,8.97,8.97,39.47-1.79,80.72,7.18,117.5-9.87,17.94-10.76,30.5-27.81,37.67-48.43h16.15c-4.48,26.91-15.25,52.02-19.73,78.93-81.62-3.59-164.14,0-246.66-1.79v-8.97c17.04,1.79,34.98-5.38,36.77-24.22,7.18-46.64.9-95.08,2.69-142.61-1.79-30.49,3.59-60.99-3.59-91.49-1.79-7.18-5.38-14.35-8.07-21.53-9.87-1.79-18.84-3.59-28.7-5.38v-10.76h.9Z"/>
            <path d="M3718.38,212.25c80.72-3.59,161.45,1.79,241.27-2.69,5.38,21.53,6.28,43.95,4.48,66.37-3.59,4.48-8.97,4.48-13.45,6.28-2.69-18.84-9.87-35.88-22.42-49.33-38.57-2.69-77.14,0-114.81-1.79-13.45,34.08-1.79,75.34-6.28,112.12v3.59c29.6-1.79,60.09,3.59,88.8-3.59,20.63-3.59,26.01-22.42,26.01-41.26,5.38,0,9.87.9,15.25,1.79-2.69,34.98,0,69.96-.9,104.94v3.59h-14.35c-.9-10.76-2.69-21.53-4.48-31.39-3.59-3.59-8.07-8.07-11.66-11.66-33.19-3.59-65.48-.9-98.66-1.79,3.59,43.05-8.07,88.79,7.18,130.05,39.47-2.69,81.62,8.07,118.39-11.66,20.63-8.07,27.8-31.39,41.26-47.54h13.45c-8.97,24.22-9.87,51.12-18.84,75.34-69.96,4.48-140.82,0-211.67,1.79-13.45,0-28.7,2.69-39.47-7.18,11.66-2.69,23.32-5.38,34.98-8.07,8.97-26.91,4.48-55.61,5.38-84.31,0-60.99,1.79-121.98-1.79-183.87-8.97-4.48-17.94-6.28-26.01-11.66-4.48-2.69-8.07-6.28-12.56-9.87h0l.9,1.8Z"/>
            <path d="M4008.09,211.35h154.27c34.08,0,70.86,18.84,86.1,51.12,4.48,19.73,3.59,41.26,0,60.99-17.94,26.01-44.85,44.85-76.24,46.64,37.67,44.85,69.96,93.28,111.22,134.54,7.18,0,13.45.9,20.63,1.79v12.56h-78.03c-25.11-34.08-50.23-69.96-79.83-100.46-6.28-17.04-23.32-26.91-32.29-42.16h-18.84c0,38.57-2.69,78.03,4.48,116.6,8.97,13.45,24.22,14.35,38.57,13.45v13.45h-129.16v-12.56c10.76,0,21.53-1.79,31.39-6.28,3.59-14.35,8.97-28.7,8.07-43.05,0-69.06.9-139.02-.9-208.09,0-20.63-22.42-26.91-38.57-26.91v-10.76h0l-.9-.9ZM4098.68,231.98c-9.87,41.26-1.79,84.31-4.48,126.47,32.29-5.38,69.06-4.48,93.28-29.6,14.35-20.63,10.76-46.64,6.28-69.96-10.76-8.97-19.73-20.63-32.29-26.01-20.63-3.59-42.16-.9-62.78-1.79h0v.9Z"/>
            <path d="M1162.14,649.05c7.18-9.87,21.53-2.69,32.29-4.48,29.6.9,70.86-6.28,86.1,27.81,0,25.11,5.38,55.61-18.84,71.75-26.01,7.18-52.92,2.69-79.83,3.59v62.78h-20.63v-160.55h0l.9-.9ZM1181.87,666.99v59.2c24.22,0,48.43.9,72.65,0,10.76-16.15,8.97-37.67,3.59-55.61-25.11-5.38-50.23-2.69-76.24-3.59h0Z"/>
            <path d="M1470.68,644.57c32.29.9,66.37-3.59,97.77,5.38,29.6,13.45,31.39,61.89,8.97,82.52h-12.56c5.38,2.69,10.76,5.38,15.25,8.07,12.56,20.63,6.28,45.74,7.18,69.06h-21.53c-.9-18.84,3.59-39.46-4.48-57.4-21.53-15.25-50.23-6.28-74.45-8.97v66.37h-17.94v-165.03h1.79ZM1488.62,666.99v60.09c23.32,0,47.54,2.69,70.86-2.69,15.25-13.45,13.45-37.67,4.48-53.82-24.22-8.07-50.23-1.79-74.45-3.59h-.9Z"/>
            <path d="M1785.5,656.23c34.08-14.35,77.14-19.73,109.42,1.79,19.73,37.67,12.56,83.41,8.97,124.67-4.48,6.28-8.07,13.45-10.76,20.63-27.8,12.56-58.3,9.87-87.9,6.28-25.11-4.48-30.5-35.88-29.6-57.4,2.69-31.39-7.18-66.37,10.76-95.08h0l-.9-.9ZM1797.17,669.68c-6.28,37.67-8.07,76.24,0,113.91,27.8,9.87,61.89,12.56,88.8-3.59,1.79-36.77,9.87-74.45-4.48-110.32-27.8-4.48-56.51-5.38-83.41,0h-.9Z"/>
            <path d="M2094.05,644.57c33.19,0,66.37-.9,98.66,3.59,10.76,9.87,28.7,16.15,28.7,34.08,2.69,29.6,2.69,60.09,0,89.69-.9,23.32-24.22,37.67-44.85,37.67h-82.52v-165.03h0ZM2114.68,666.99v121.09c26.91,0,53.82,1.79,80.72-1.79,13.45-36.77,14.35-78.93,0-115.7-26.91-3.59-53.82-2.69-80.72-2.69h0v-.9Z"/>
            <path d="M2414.25,644.57h20.63c.9,46.64-3.59,93.28,4.48,139.02,24.22,11.66,52.92,8.97,77.14,0,8.97-45.74,1.79-93.28,4.48-139.02h17.94v139.02c-13.45,33.19-52.92,27.81-82.52,26.91-18.84,0-40.36-12.56-42.16-34.08v-131.85h0Z"/>
            <path d="M2732.66,671.47c11.66-16.15,29.6-26.91,49.33-26.91,22.42,0,49.33-4.48,66.37,13.45,7.18,11.66,5.38,26.91,6.28,40.36h-21.53c0-10.76,0-22.42-7.18-32.29-23.32,0-47.54-1.79-70.86,3.59-8.07,35.88-5.38,73.55,0,110.32,22.42,17.04,52.02,12.56,77.14,6.28,5.38-9.87,5.38-20.63,4.48-31.39h17.94c0,17.94,5.38,45.74-17.04,52.92-26.01,4.48-54.71,7.18-80.72,0-12.56-2.69-18.84-15.25-21.53-26.01-9.87-35.88-7.18-73.55-2.69-109.42h0v-.9Z"/>
            <path d="M3576.67,646.36c28.7-3.59,62.78-8.07,86.1,13.45,18.84,37.67,11.66,82.52,8.07,122.88-19.73,38.57-67.27,28.7-102.25,26.01-42.16-16.15-27.8-69.96-30.5-105.84-5.38-26.01,12.56-53.82,38.57-56.51h0ZM3565.01,669.68c-6.28,37.67-8.97,78.03,1.79,115.7,26.01,9.87,53.82,5.38,80.72,1.79,6.28-38.57,12.56-79.83,0-116.6-26.01-6.28-54.71-4.48-81.62,0h0l-.9-.9Z"/>
            <path d="M3861,644.57h28.7c28.7,47.54,55.61,95.97,86.1,141.72v-141.72h17.94v165.03h-31.39c-26.91-47.54-55.61-94.18-83.41-140.82-.9,46.64,0,94.18,0,140.82h-17.94v-165.03h0Z"/>
            <path d="M4201.83,648.15c27.8-3.59,59.2-10.76,85.21,4.48,12.56,10.76,12.56,27.81,11.66,43.05h-20.63c-.9-9.87,3.59-26.01-9.87-28.7-20.63-1.79-42.16-1.79-62.78,2.69-7.18,15.25-4.48,32.29,7.18,43.95,26.91,5.38,57.4,0,81.62,15.25,14.35,24.22,14.35,70.86-18.84,79.83-22.42,3.59-46.64,2.69-69.06,0-21.53-8.07-26.01-33.19-22.42-52.92h17.04c0,10.76,2.69,20.63,6.28,30.49,23.32,7.18,47.54,7.18,70.86,0,3.59-15.25,4.48-30.49,0-45.74-26.91-9.87-58.3,2.69-82.52-16.15-17.94-21.53-15.25-58.3,6.28-76.24h0Z"/>
            <path d="M3029.54,649.05c39.47-.9,78.93,0,118.39,0h3.59v18.84c-17.04,2.69-34.08,1.79-51.12,1.79v140.82h-20.63v-140.82h-50.23v-20.63h0Z"/>
            <path d="M3334.5,648.15h14.35v161.45h-14.35v-161.45Z"/>
          </g>
          <path d="M1162.14,934.27h3141.04v21.53H1163.04v-21.53h-.9Z"/>
        </g>
        <g>
          <path class="cls-2" d="M441.91,59.77c17.04-8.97,36.77-7.18,54.71-4.48,8.07,3.59,15.25,8.97,23.32,12.56,2.69-2.69,5.38-5.38,7.18-8.07,17.04-8.07,36.77-7.18,55.61-5.38,20.63,7.18,34.98,27.81,35.88,48.43.9,17.04,8.97,32.29,11.66,49.33,5.38,17.04,5.38,34.98,8.97,52.92,19.73,18.84,52.02,13.45,71.75,32.29h5.38c6.28,14.35-7.18,26.01-19.73,31.39-16.15,5.38-31.39,12.56-47.54,16.15,2.69,7.18,5.38,15.25,5.38,23.32-26.01,0-52.02,6.28-78.03,0-11.66,0-25.11,3.59-31.39,14.35-8.97,6.28-18.84,4.48-28.7,5.38-11.66,2.69-17.04,13.45-18.84,24.22,3.59,20.63,26.01,24.22,43.05,28.7,34.98.9,69.96,0,105.84,0v5.38c-3.59,4.48-7.18,9.87-8.97,16.15-3.59,12.56-13.45,22.42-16.15,34.98-3.59,27.81-6.28,59.2,10.76,83.41,22.42,32.29,60.09,48.43,92.38,69.06,17.94,6.28,34.08,17.94,53.82,21.53,1.79,1.79,3.59,3.59,5.38,5.38-8.97,4.48-18.84,8.07-28.7,7.18-13.45,0-23.32,8.97-34.08,15.25-5.38,8.07-5.38,17.94,0,26.01,15.25,8.07,34.08,4.48,50.23,1.79,5.38,0,9.87,1.79,14.35,5.38,8.97,8.07,21.53,8.97,32.29,11.66,19.73-.9,36.77-10.76,53.82-18.84,29.6,14.35,52.92,48.43,45.74,82.52-8.07-1.79-12.56-11.66-21.53-12.56-13.45-1.79-26.91-1.79-39.47,2.69-7.18,2.69-9.87,10.76-8.07,17.94,2.69,9.87,1.79,20.63,1.79,31.39-17.04,12.56-37.67,16.15-53.82,29.6h-7.18c-10.76-12.56-26.01-21.53-40.36-29.6-1.79.9-4.48,1.79-6.28,2.69-6.28,12.56,0,26.01,1.79,39.46.9,0,2.69,2.69,4.48,3.59,1.79,8.97-1.79,17.04-11.66,14.35-6.28-5.38-14.35-9.87-18.84-17.04-4.48-7.18-8.97-16.15-18.84-14.35-1.79,1.79-4.48,4.48-6.28,6.28-4.48,13.45,0,26.91,7.18,38.57,3.59,6.28-4.48,8.97-9.87,8.07-3.59-4.48-7.18-9.87-11.66-14.35v-4.48c-4.48-5.38-8.07-12.56-10.76-18.84-8.07-2.69-21.53-3.59-24.22,7.18-5.38,16.15,11.66,26.01,12.56,41.26,0,.9-1.79,2.69-2.69,4.48-27.8,14.35-57.4,26.91-84.31,43.05-8.97,1.79-17.04,7.18-24.22,14.35.9,16.15,17.04,35.88,34.98,34.08,17.94-7.18,29.6-29.6,51.12-29.6,5.38,12.56-2.69,25.11,0,37.67,15.25,17.04,41.26,7.18,60.09,2.69,11.66,0,21.53-5.38,31.39-9.87,16.15-4.48,26.01-19.73,43.95-18.84,23.32,0,40.36-15.25,60.99-22.42,21.53,1.79,42.16-10.76,55.61-26.91,2.69-12.56,2.69-26.01,0-38.57-3.59-8.97-10.76-16.15-14.35-25.11,4.48-11.66,18.84-11.66,27.8-5.38,2.69,3.59,5.38,7.18,8.07,9.87h16.15c5.38,30.49,0,62.78,1.79,94.18.9,32.29,5.38,65.48,0,98.66h-238.58c-60.99-2.69-121.09,0-182.08-1.79H111.84c-.9-35.88,1.79-70.86-2.69-106.73v-98.66c-.9-33.19,6.28-65.48,13.45-97.76,4.48-35.88,16.15-71.75,40.36-98.66,5.38-3.59,10.76-8.07,14.35-13.45,11.66-4.48,18.84-16.15,30.5-20.63,15.25-8.97,30.5-16.15,47.54-21.53,17.04-9.87,37.67-8.97,55.61-15.25,15.25-2.69,28.7-9.87,43.95-12.56,0,0,2.69-2.69,3.59-2.69,38.57-14.35,69.96-52.02,69.96-94.18-3.59-10.76,0-22.42-1.79-34.08-6.28-9.87-18.84-13.45-22.42-25.11-17.04-17.04-25.11-43.05-25.11-67.27,2.69-13.45,1.79-27.81,1.79-42.16-8.07-7.18-19.73-10.76-26.91-18.84-13.45-3.59-22.42-15.25-34.08-21.53-6.28-2.69-8.07-8.97-8.07-15.25,4.48-3.59,9.87-7.18,14.35-10.76,21.53-3.59,42.16-8.97,62.78-16.15,7.18-1.79,10.76-8.07,14.35-13.45h81.62c34.98-4.48,71.75,0,106.73-2.69,16.15-2.69,15.25-23.32,7.18-34.08-8.97-5.38-18.84-10.76-30.5-10.76-12.56-5.38-23.32-12.56-36.77-14.35-12.56-1.79-21.53-14.35-34.08-15.25-25.11,4.48-52.02.9-77.14,1.79,0-2.69-.9-5.38-1.79-8.07,4.48-17.94,6.28-38.57,23.32-49.33h0v-.9ZM512.76,533.35c-.9,1.79-1.79,3.59-2.69,5.38,15.25,10.76,32.29,20.63,43.05,36.77,3.59,11.66,12.56,21.53,10.76,34.08,1.79,5.38-6.28,9.87-8.07,3.59-14.35-29.6-30.5-63.68-65.48-72.65-14.35-1.79-38.57-6.28-41.26,13.45,5.38,14.35,22.42,17.04,35.88,19.73,12.56,8.07,26.91,17.94,33.19,32.29,1.79,8.07,0,16.15-1.79,24.22-8.07,7.18-15.25,19.73-27.8,17.94-13.45,1.79-24.22-7.18-35.88-12.56-17.04-5.38-31.39-19.73-51.12-19.73-17.94,0-35.88-1.79-52.92,3.59-8.97,3.59-20.63,4.48-26.01-4.48-18.84-22.42-59.2-11.66-67.27,14.35-8.07,19.73,6.28,40.36,0,60.99-9.87,6.28-18.84-2.69-27.8-6.28-11.66-.9-22.42,0-33.19,1.79-.9,0-2.69,2.69-3.59,3.59-19.73,6.28-32.29,24.22-43.05,40.36-7.18,8.07-8.97,23.32,4.48,25.11,26.01-12.56,52.02-26.91,81.62-24.22,2.69-2.69,5.38-5.38,8.07-8.97,14.35,8.97,28.7,21.53,46.64,19.73,17.94,1.79,34.08-5.38,49.33-13.45,7.18-8.97,16.15-15.25,26.91-20.63,18.84,4.48,39.47,5.38,55.61,17.04,9.87,7.18,21.53,12.56,34.08,13.45,6.28-.9,12.56-2.69,19.73-3.59,4.48,9.87,9.87,19.73,18.84,26.91,10.76.9,18.84,9.87,28.7,11.66.9,0,2.69,2.69,3.59,3.59,26.91,5.38,51.12,23.32,79.83,17.04,1.79-5.38,1.79-14.35-4.48-17.04-18.84-13.45-43.05-16.15-60.09-32.29,1.79-5.38,4.48-13.45,11.66-13.45,10.76-1.79,17.94,6.28,25.11,12.56,19.73,9.87,36.77,23.32,54.71,35.88,13.45,9.87,31.39,6.28,47.54,3.59v-4.48c-4.48-3.59-8.07-8.07-11.66-12.56-24.22-15.25-44.85-38.57-74.45-41.26-11.66,0-17.04-12.56-15.25-22.42,3.59-3.59,6.28-6.28,9.87-9.87,9.87,3.59,20.63,2.69,28.7-4.48,4.48-9.87,5.38-19.73,8.07-29.6,3.59-11.66-3.59-22.42-6.28-33.19-11.66-5.38-15.25-20.63-29.6-21.53-.9-15.25-1.79-30.49-11.66-42.16-10.76-21.53-38.57-42.16-62.78-28.7h0l-1.79.9ZM440.11,780.9c-10.76,17.04-31.39,21.53-51.12,18.84,0,7.18,0,13.45-1.79,20.63-22.42,8.07-45.74,12.56-66.37,24.22-19.73.9-35.88,13.45-55.61,16.15-9.87,1.79-18.84-5.38-26.91-10.76-23.32-12.56-49.33-21.53-69.06-39.46h-6.28c-5.38,6.28-8.97,13.45-11.66,20.63,4.48,11.66,17.94,15.25,25.11,25.11,5.38,3.59,10.76,7.18,16.15,10.76,3.59,13.45-15.25,14.35-19.73,24.22-17.94,8.07-32.29,22.42-46.64,35.88,0,4.48,1.79,8.97,2.69,13.45,29.6,9.87,59.2-7.18,87.9-13.45,11.66,0,21.53-8.97,33.19-8.07,33.19,13.45,67.27,23.32,100.46,37.67,22.42,4.48,43.05,17.94,66.37,20.63,13.45,5.38,28.7,11.66,43.05,6.28,0-12.56,3.59-25.11,0-37.67-15.25-16.15-37.67-20.63-55.61-33.19-13.45-3.59-26.01-10.76-36.77-19.73v-7.18c12.56-15.25,29.6-23.32,43.95-34.98,9.87,0,20.63-1.79,29.6,3.59,14.35,8.07,31.39,3.59,47.54,4.48,1.79-2.69,2.69-5.38,4.48-8.97-5.38-17.94-23.32-26.01-34.08-38.57-2.69-11.66-1.79-23.32-6.28-34.08-3.59,0-7.18,1.79-10.76,2.69h0l-1.8.89Z"/>
          <path class="cls-2" d="M787.22,879.56c11.66-.9,25.11-9.87,35.88,0v11.66c-21.53,21.53-50.23,35.88-79.83,42.16-4.48-1.79-8.97-4.48-12.56-6.28-.9-3.59-1.79-8.07-2.69-11.66,8.97-6.28,18.84-12.56,27.8-19.73,11.66-3.59,22.42-8.97,32.29-15.25h0l-.9-.9Z"/>
        </g>
      </g>
    </g>
  </g>
</svg>