<?xml version="1.0" encoding="UTF-8"?>
<svg id="Layer_1" data-name="Layer 1" xmlns="http://www.w3.org/2000/svg" viewBox="0 0 559.51 478.78">
  <defs>
    <style>
      .cls-1 {
        fill: #4ba8d9;
      }

      .cls-2 {
        fill: #010101;
      }
    </style>
  </defs>
  <path class="cls-1" d="M254.88,2.24c5.57-2.83,12.21-2.47,18.24-1.59,2.71,1.09,5.1,2.92,7.79,4.12.83-.86,1.67-1.71,2.52-2.56,5.7-2.75,12.26-2.36,18.41-1.84,6.7,2.25,11.53,9.08,11.88,16.01.44,5.6,2.96,10.76,3.84,16.28,1.69,5.71,1.73,11.7,3.08,17.46,6.57,6.21,17.23,4.42,23.91,10.66.44.03,1.31.09,1.75.11,2.01,4.87-2.5,8.65-6.58,10.33-5.25,1.84-10.34,4.18-15.81,5.35.83,2.47,1.67,4.97,1.68,7.6-8.63-.22-17.29,2.08-25.84.12-3.79.2-8.34,1.28-10.35,4.81-2.84,2.13-6.36,1.41-9.65,1.65-3.73.89-5.6,4.47-6.31,7.9,1.12,6.73,8.68,8.1,14.22,9.59,11.66.31,23.35.05,35.03.14-.02.42-.03,1.29-.04,1.72-1.31,1.56-2.44,3.29-3.08,5.22-1.23,4.1-4.52,7.29-5.45,11.5-1.19,9.29-2.06,19.49,3.59,27.6,7.31,10.81,19.86,16.18,30.59,22.89,6.03,2.16,11.4,6.05,17.83,7.04.61.58,1.23,1.17,1.86,1.76-3,1.4-6.2,2.55-9.57,2.44-4.37.13-7.75,3.11-11.36,5.15-1.81,2.74-1.78,5.97-.04,8.74,5.1,2.8,11.19,1.6,16.63.64,1.7.05,3.41.72,4.71,1.84,2.96,2.64,7.11,3.03,10.84,3.88,6.54-.4,12.1-3.58,17.84-6.29,9.72,4.86,17.41,16.2,15.05,27.26-2.66-.74-4.2-3.74-7.04-4.06-4.34-.59-8.96-.66-13.1.85-2.36.85-3.18,3.57-2.61,5.83.95,3.38.58,6.9.61,10.37-5.53,4.06-12.53,5.4-17.79,9.89-.82.01-1.62.03-2.42.06-3.68-4.15-8.59-7.01-13.41-9.69-.67.34-1.35.68-2.02,1.02-1.94,4.27.19,8.65.71,12.97.34.29,1,.88,1.34,1.18.61,2.85-.56,5.69-3.95,4.76-2.03-1.92-4.69-3.22-6.14-5.69-1.47-2.31-3.02-5.28-6.3-4.71-.71.7-1.41,1.41-2.11,2.11-1.61,4.47.29,8.89,2.51,12.78,1.19,2.12-1.54,2.83-3.16,2.72-1.3-1.55-2.53-3.15-3.78-4.72-.05-.35-.15-1.06-.2-1.41-1.44-1.91-2.54-4.04-3.67-6.14-2.82-.99-7.17-1.13-8.09,2.44-1.76,5.25,3.99,8.72,4.09,13.79-.21.34-.65,1.01-.87,1.35-9.37,4.67-19,8.79-27.88,14.31-3.07.72-5.74,2.4-7.9,4.66.42,5.5,5.64,12.04,11.72,11.39,5.96-2.42,9.97-9.85,16.96-9.7,1.93,4.11-.86,8.38.08,12.65,5.1,5.63,13.64,2.27,19.98.99,3.82.28,7.01-1.89,10.35-3.3,5.23-1.35,8.71-6.56,14.49-6.3,7.6-.01,13.54-5.06,20.37-7.44,7.29.61,14.02-3.5,18.48-8.95.95-4.21.85-8.6-.22-12.77-1.24-3.04-3.57-5.47-4.89-8.46,1.6-3.77,6.22-3.99,9.15-1.64.78,1.21,1.72,2.33,2.68,3.41,1.83,0,3.66-.01,5.49-.02,1.71,10.22.27,20.84.73,31.21.35,10.82,1.69,21.87.1,32.64-26.43-.12-52.86.11-79.28-.12-20.12-1-40.29.15-60.42-.62-42.49-.06-84.98.02-127.47-.04-.52-.02-1.55-.04-2.08-.06-.39-11.78.72-23.66-.79-35.35.07-10.87.02-21.74.04-32.61-.39-11.01,2-21.85,4.47-32.54,1.47-11.8,5.41-23.75,13.26-32.85,1.79-1.28,3.54-2.64,4.67-4.56,3.96-1.5,6.26-5.41,10.26-6.83,5-2.89,10.2-5.24,15.64-7.21,5.61-3.41,12.44-2.9,18.51-5.02,5-.79,9.54-3.26,14.54-4.04.29-.26.89-.78,1.2-1.04,12.91-4.64,23.21-17.28,23.19-31.21-1.06-3.67-.09-7.52-.71-11.23-2.06-3.15-6.21-4.49-7.3-8.46-5.71-5.71-8.45-14.4-8.24-22.34,1.01-4.59.67-9.29.72-13.96-2.76-2.45-6.44-3.61-8.99-6.32-4.37-1.24-7.38-4.97-11.37-7-2.06-.83-2.62-3.05-2.74-5.05,1.55-1.3,3.18-2.5,4.8-3.72,7.04-1.23,14.08-2.86,20.75-5.43,2.32-.67,3.51-2.79,4.85-4.59,9.03.02,18.06.02,27.08,0,11.75-1.6,23.74,0,35.52-.98,5.39-.76,5.11-7.85,2.51-11.23-3.06-1.84-6.35-3.7-10.07-3.47-4.03-1.67-7.83-4.07-12.23-4.82-4.24-.67-7.13-4.72-11.43-5.03-8.45,1.5-17.12.43-25.68.74-.19-.86-.36-1.71-.57-2.55,1.61-5.83,2.23-12.72,7.85-16.38M278.52,159.57c-.3.61-.59,1.23-.9,1.85,5.08,3.65,10.72,6.88,14.2,12.19,1.07,3.83,4.04,7.1,3.69,11.29.58,1.65-2.11,3.28-2.69,1.24-4.76-9.77-10.24-21.08-21.73-24.08-4.74-.69-12.7-2.2-13.61,4.36,1.82,4.69,7.55,5.51,11.88,6.59,4.23,2.82,8.96,5.81,10.87,10.73.59,2.67.2,5.47-.59,8.07-2.73,2.38-4.99,6.49-9.21,5.93-4.45.63-7.97-2.52-11.8-4.15-5.73-1.88-10.55-6.4-16.85-6.54-5.83.21-11.85-.73-17.5,1.15-2.92,1.06-6.82,1.6-8.73-1.46-6.26-7.29-19.52-3.96-22.29,4.9-2.68,6.6,2.1,13.52-.19,20.19-3.38,2.09-6.31-.84-9.35-1.98-3.73-.35-7.49-.11-11.13.74-.3.27-.89.81-1.19,1.08-6.61,1.94-10.71,8.01-14.43,13.34-2.31,2.64-3.09,7.85,1.55,8.27,8.5-4.03,17.26-8.95,27.08-7.98.9-.96,1.81-1.92,2.72-2.88,4.72,2.98,9.49,7,15.48,6.44,5.81.61,11.26-1.91,16.22-4.58,2.27-2.98,5.48-5.2,8.86-6.76,6.27,1.55,13.12,1.92,18.56,5.73,3.27,2.5,7.21,4.05,11.29,4.57,2.16-.37,4.3-.86,6.48-1.1,1.49,3.35,3.28,6.61,6.11,9.06,3.58.36,6.15,3.17,9.6,3.9.31.28.92.83,1.22,1.11,8.98,1.68,17.11,7.83,26.6,5.51.53-1.92.64-4.64-1.37-5.77-6.24-4.42-14.23-5.49-20.07-10.61.56-1.91,1.38-4.61,3.91-4.38,3.52-.59,5.95,2.23,8.47,4.11,6.44,3.35,12.21,7.77,18.01,11.97,4.6,3.35,10.51,2.08,15.71,1.23-.01-.39-.04-1.16-.05-1.55-1.4-1.31-2.71-2.73-3.82-4.29-7.95-4.96-14.91-12.8-24.82-13.82-3.87,0-5.76-4.25-5.02-7.59,1.09-1.08,2.19-2.14,3.29-3.21,3.17,1.11,6.91,1.03,9.4-1.47,1.43-3.15,1.76-6.64,2.78-9.93,1.15-3.81-1.13-7.41-2.03-11.01-3.76-1.89-5.19-6.74-9.85-7-.41-4.92-.67-10.01-3.9-14.06-3.45-7.28-12.9-13.88-20.9-9.38M254.29,241.77c-3.68,5.69-10.52,7.15-16.91,6.25-.19,2.29-.24,4.59-.47,6.88-7.34,2.62-15.15,4.22-22.04,7.9-6.59.33-12,4.55-18.42,5.47-3.36.53-6.18-1.79-8.85-3.42-7.75-4.18-16.32-7.2-22.93-13.21-.71-.03-1.41-.06-2.11-.11-1.65,2.11-3.06,4.45-3.89,6.99,1.53,3.93,5.92,5.05,8.19,8.29,1.85,1.07,3.57,2.35,5.3,3.61,1.25,4.46-4.97,4.64-6.56,7.92-6.01,2.6-10.83,7.47-15.58,11.94.14,1.54.46,3.05.91,4.54,9.71,3.42,19.6-2.4,29.04-4.45,3.77-.27,7.07-2.85,10.87-2.62,10.92,4.59,22.39,7.78,33.3,12.43,7.54,1.47,14.18,5.83,21.87,6.84,4.47,1.8,9.53,3.8,14.33,1.97-.14-4.25,1.1-8.34-.11-12.55-4.92-5.49-12.41-6.98-18.4-10.94-4.55-1.18-8.63-3.54-12.27-6.43,0-.8,0-1.59,0-2.38,4.05-4.94,9.9-7.66,14.62-11.63,3.32.07,6.89-.63,9.82,1.32,4.79,2.66,10.46,1.09,15.67,1.52.47-.96.93-1.91,1.43-2.85-1.72-5.92-7.6-8.49-11.35-12.88-.89-3.73-.69-7.65-1.98-11.31-1.19.28-2.36.61-3.52.93"/>
  <path class="cls-1" d="M369.59,274.39c3.89-.44,8.36-3.23,11.82-.1-.02,1.28-.03,2.57-.03,3.87-7.18,7-16.52,12.05-26.46,13.85-1.52-.52-2.89-1.39-4.24-2.23-.3-1.33-.66-2.63-.99-3.93,2.99-2.23,6.27-4.08,9.14-6.49,3.78-1.16,7.37-2.98,10.76-4.97"/>
  <path class="cls-2" d="M193.29,348.23c.85.36,1.65.82,2.47,1.24,5.17,12.83,10.88,25.45,16.5,38.09,1.34,4.29,3.68,8.12,5.73,12.07.76,1.71,2.98,1.31,4.48,1.81-.04.5-.15,1.5-.2,2-6.9.03-13.8-.01-20.7.01,0-.5-.02-1.5-.03-2,1.88-.42,4.1-.1,5.67-1.38.23-5.02-3.83-8.88-4.49-13.73-7.01-.04-14.03,0-21.04-.02-1.82,4.02-3.79,8.1-4.08,12.58.66,2.57,3.65,2.2,5.7,2.55,0,.5-.03,1.5-.03,2-5.24-.05-10.47.06-15.71-.01-.97.24-2.1-1.68-.87-1.93,3.82-.82,6.45-4.31,7.44-7.93.89-3.47,3.23-6.34,4.21-9.77,1.26-4.9,4.66-8.9,5.64-13.9,3.41-7.08,6.43-14.36,9.29-21.69M188.54,370.02c-1.27,4.11-3.82,7.68-5.07,11.8,5.7.11,11.4.02,17.1.06-2.35-6.99-6.11-13.44-8.11-20.52-1.72,2.67-2.99,5.62-3.92,8.66"/>
  <path class="cls-2" d="M363.25,349.02c.67-.88,2.14-.85,2.83,0,5.46,13.95,12.05,27.37,17.77,41.2,2.25,3.45,2.42,8.07,5.98,10.65.96.11,1.92.22,2.89.34,0,.74,0,1.49,0,2.25h-20.83c0-.77.02-1.54.04-2.29,2.31.18,4.96.15,5.56-2.61-.9-4.33-2.57-8.36-4.66-12.23-6.8,0-13.6,0-20.4,0-1.7,4.29-4.45,8.4-4.59,13.14,1.41,1.32,3.25,1.76,5.14,1.81,0,.72.01,1.45.02,2.18h-15.79c0-.76,0-1.52,0-2.26.98-.1,1.97-.2,2.96-.3,5.23-6.48,7.15-14.83,10.99-22.09,3.61-10.09,8.67-19.62,12.09-29.78M362.63,361.98c-3.45,6.41-5.6,13.33-8.66,19.9,5.83,0,11.66.04,17.49-.04-3.55-6.36-5.23-13.52-8.83-19.86"/>
  <path class="cls-2" d="M216.36,349.55c5.08-.04,10.17,0,15.25-.01,16.92,18.58,34.46,36.82,51.78,55.23,9.62-12.09,20.66-22.96,30.66-34.75,6.6-6.63,12.26-13.93,18.99-20.48,3.97-.01,7.95,0,11.93,0-.51.84-1.01,1.69-1.51,2.54-2.41-.19-5.04.07-6.7,2.04-2.55,3.67-3.28,8.21-4,12.53-1.41,4.9-2.88,9.79-4.31,14.69-.53,5.8-3.4,11.09-3.77,16.91.31.87.76,1.69,1.18,2.53,1.7.19,3.38.47,5.06.8,0,.47,0,1.4-.01,1.87h-20.32c.31-.65.62-1.29.94-1.93,1.77-.31,3.56-.54,5.36-.7,6.33-7.29,6.15-17.48,9.25-26.18,1.78-4.51,1.9-9.42,3.65-13.93-10.01,10.81-19.84,22.03-29.73,32.7-1.19,3.1-5.15,3.93-5.95,7.32-5.17,4.07-8.74,9.79-13.46,14.35-3.42-3.1-5.75-7.29-9.56-9.92-.57-1.79-1.77-3.21-3.37-4.15-1.98-1.07-2.15-3.69-4.05-4.83-1.67-1.12-3.07-2.61-3.78-4.52-9.89-9.6-18.45-20.56-28.15-30.37.85,7.68,4.52,14.7,5.39,22.36,1.66,5.35,2.89,10.91,5.62,15.83,2,1.85,4.91,1.59,7.41,2.05,0,.48,0,1.45,0,1.93-6.45-.01-12.9,0-19.35,0-.31-.63-.63-1.26-.95-1.87,2.24-.36,4.72-.39,6.45-2.09.35-6.3-2.63-12.06-3.92-18.1-1.24-7.96-4.69-15.37-5.87-23.35-.4-3.87-4.31-6.21-7.94-6.01-1.39.11-1.59-1.61-2.23-2.49"/>
  <path class="cls-2" d="M397.12,349.53c7.77.03,15.54-.04,23.31.03,0,.79.01,1.58.02,2.38-2.47-.07-4.79.74-6.77,2.17-1.28,6.7-.64,13.53-.76,20.3,7.22-6.5,15.84-12.08,20.48-20.87-1.59-.94-3.37-1.36-5.16-1.69-1.55-.25-.84-2.48.5-2.31,6.86-.06,13.71.02,20.58,0,0,.81,0,1.62.01,2.43-6.62,0-11.81,4.6-15.73,9.49-.86,1.15-2.15,1.79-3.4,2.39-2.54,3.16-5.69,5.78-8.79,8.37,6.42,7.04,12.92,13.96,19.38,20.95,3.12,3.98,7.05,8.34,12.51,8.3,0,.49-.03,1.48-.03,1.98-8.41,0-16.82,0-25.23,0,0-.51-.03-1.53-.04-2.03,1.96-.27,3.92-.41,5.9-.6-.87-5.75-6.92-8.51-9.69-13.19-3.47-2.74-5.74-6.62-9.08-9.51-.73.72-1.46,1.43-2.19,2.14.26,6.68-1,13.6,1.38,20.03,1.85.81,3.87.93,5.87.89.04.75.09,1.51.14,2.27-7.73,0-15.45,0-23.19,0,0-.77,0-1.55.01-2.31,1.89-.05,3.78-.15,5.68-.24,2.23-4.09,1.94-8.81,1.89-13.31-.4-11.19.87-22.51-.79-33.6-2.07-1.2-4.35-2.1-6.78-1.96,0-.84,0-1.67,0-2.5"/>
  <path class="cls-2" d="M1.12,350.44c8.77-.63,17.59-.08,26.38-.28,10.98.16,22.9,6.35,26.01,17.62,1.25,7.99,1.84,17.26-3.51,23.99-4.53,7.12-12.95,11.11-21.24,11.06-9.44.18-18.91-.38-28.33.3l-.42.04c.32-3.33,4.52-1.25,6.12-3.39.6-1.04.95-2.21,1.28-3.36,1.25-8.14.21-16.47.54-24.68-.23-5.17.6-10.44-.57-15.53-.41-2.22-2.23-3.48-4.23-4.14-.78-.41-1.43-.99-2.02-1.63M16.1,353.93v.37c-1.36,9.91-.21,20.09-.59,30.11.25,4.75-.61,9.63.57,14.29.22.18.66.54.88.72,6.93,1.97,14.17-.77,20.34-3.93,8.79-7.07,9.03-19.9,5.91-29.95-4.81-9.81-16.87-13.88-27.11-11.62"/>
  <path class="cls-2" d="M59.75,350.36c9-.46,18.03-.06,27.04-.2,4.56-.31,8.96,1.84,12.5,4.56,4.11,4.17,4.15,11.16,1.87,16.26-3.17,3.59-7.56,6.56-12.52,6.54,6.33,7.86,12.48,15.81,19.12,23.33,1.21.1,2.41.21,3.62.32,0,.75.02,1.51.03,2.28-4.4.01-8.79-.03-13.18.03-3.44-4.36-6.5-9.13-10.55-12.93-2.81-4.13-6.09-7.99-9.35-11.8-.96-.01-1.91-.03-2.86-.03.14,6.25-.33,12.55.25,18.77.16,3.53,4.06,3.68,6.71,3.91-.01.51-.03,1.54-.04,2.06-7.57,0-15.14,0-22.71,0,0-.51-.03-1.51-.03-2.02,1.65-.23,3.31-.42,4.96-.59.74-1.05,1.57-2.07,2.07-3.26,1.33-9.14.21-18.51.58-27.75-.24-4.83.6-9.77-.56-14.5-.79-2-2.97-2.53-4.69-3.4-.76-.51-1.5-1.04-2.23-1.58M75.45,353.9c-.02,7.24-.04,14.49,0,21.74,4.29-1.15,9.07-.48,12.98-2.89,5.63-2.65,5.67-10.52,3.17-15.38-3.97-4.91-10.66-3.5-16.16-3.48"/>
  <path class="cls-2" d="M115.82,350.18c14.2-.08,28.41.13,42.61-.11h.3c-.06,4.09-.02,8.17-.03,12.27-4.38.74-3.35-5.13-5.24-7.67-7.32-1.9-15.03-.38-22.51-.9-.04,6.41.05,12.82-.04,19.23l-.02.63c5.19-.27,10.5.66,15.6-.61,3.83-.19,4.36-3.9,4.72-7,1.02,0,2.04-.01,3.07,0,0,6.39,0,12.77,0,19.16-4.66.74-2.89-5.61-5.8-7.69-5.83-.45-11.68-.23-17.52-.25,0,6.94-.05,13.88.03,20.83.51.5,1.01,1.01,1.52,1.54,6.89-.32,14.19,1.19,20.69-1.76,3.08-1.91,5.44-4.85,6.56-8.32.97-.02,1.92-.04,2.89-.04-.83,4.62-2.68,8.96-3.43,13.6-14.44-.65-28.95-.07-43.41-.29,0-.39,0-1.17.01-1.57,2.94.25,6.14-.88,6.41-4.26,1.19-8.12.2-16.42.52-24.61-.24-5.24.62-10.58-.56-15.73-.35-1.29-.88-2.51-1.36-3.74-1.69-.23-3.35-.61-5.03-.89,0-.46.02-1.37.03-1.82"/>
  <path class="cls-2" d="M456.54,350.34c14.15-.57,28.35.24,42.49-.4,1,3.75,1.17,7.64.86,11.5-.55.81-1.58.79-2.42,1.01-.4-3.2-1.72-6.18-4.02-8.46-6.74-.51-13.5.05-20.24-.32-2.34,5.96-.39,12.95-1.03,19.32v.63c5.19-.28,10.51.67,15.61-.61,3.61-.55,4.6-3.87,4.62-7.08.9.09,1.79.19,2.7.29-.53,6.04-.08,12.13-.22,18.2v.61c-.83,0-1.65,0-2.46,0-.2-1.84-.53-3.65-.83-5.47-.68-.68-1.35-1.38-2.01-2.07-5.78-.55-11.6-.21-17.4-.28.59,7.43-1.37,15.29,1.28,22.41,6.91-.48,14.33,1.35,20.77-1.94,3.65-1.37,4.89-5.45,7.27-8.21.8,0,1.6,0,2.4.01-1.51,4.23-1.67,8.81-3.35,12.99-12.38.78-24.81.08-37.21.36-2.33-.09-5.01.52-6.91-1.21,2.06-.49,4.14-.89,6.2-1.44,1.53-4.69.76-9.67.93-14.51-.15-10.57.31-21.15-.27-31.7-1.52-.7-3.15-1.15-4.58-2.01-.75-.53-1.47-1.08-2.18-1.64"/>
  <path class="cls-2" d="M507.53,350.17c9.03-.04,18.07.01,27.1-.01,5.99.04,12.5,3.23,15.16,8.83.81,3.43.62,7.14-.13,10.58-3.1,4.48-7.86,7.79-13.41,8.06,6.55,7.7,12.31,16.08,19.5,23.24,1.19.12,2.39.23,3.6.34,0,.74-.01,1.49-.01,2.25-4.55,0-9.11,0-13.67,0-4.45-5.93-8.89-12.08-14.04-17.35-1.11-3.02-4.03-4.69-5.68-7.35-1.1-.02-2.19-.03-3.29-.03.15,6.7-.52,13.47.77,20.1,1.56,2.28,4.23,2.56,6.78,2.35,0,.75.02,1.52.04,2.29h-22.73c0-.75.01-1.49.03-2.23,1.89-.03,3.76-.36,5.54-1.05.7-2.45,1.53-4.93,1.38-7.51-.1-12.01.2-24.03-.16-36.01-.07-3.5-3.9-4.67-6.79-4.66,0-.46.02-1.37.02-1.83M523.45,353.76c-1.72,7.13-.39,14.63-.78,21.91,5.64-.97,12.08-.81,16.49-5.07,2.48-3.53,1.85-8.07,1.08-12.04-1.82-1.58-3.47-3.52-5.73-4.44-3.65-.62-7.37-.18-11.05-.35"/>
  <path class="cls-2" d="M6.74,425.81c1.29-1.64,3.79-.49,5.62-.81,5.22.16,12.42-1.04,15.14,4.73,0,4.38,1.02,9.58-3.29,12.36-4.58,1.2-9.33.51-13.99.68-.02,3.59-.03,7.18.01,10.78-1.19,0-2.37,0-3.56.01.07-9.25-.11-18.51.07-27.75M10.22,428.82c-.03,3.43-.03,6.87,0,10.31,4.26-.04,8.52.18,12.78-.14,1.87-2.85,1.63-6.49.57-9.6-4.39-.99-8.91-.44-13.36-.57"/>
  <path class="cls-2" d="M60.92,425.01c5.75.2,11.65-.64,17.26.99,5.13,2.36,5.45,10.65,1.61,14.25-.54.02-1.6.05-2.14.07.91.45,1.82.9,2.74,1.33,2.23,3.6,1.09,7.93,1.34,11.92-1.27,0-2.53,0-3.79,0-.2-3.29.56-6.79-.74-9.92-3.8-2.64-8.79-1.12-13.13-1.5,0,3.81,0,7.61,0,11.42-1.06,0-2.11,0-3.17,0,0-9.52,0-19.03,0-28.55M64.09,428.82c0,3.46,0,6.93,0,10.39,4.13-.12,8.32.41,12.39-.43,2.64-2.4,2.35-6.45.76-9.32-4.21-1.35-8.8-.33-13.16-.64"/>
  <path class="cls-2" d="M116.45,426.97c5.92-2.51,13.62-3.37,19.19.28,3.49,6.55,2.26,14.41,1.53,21.5-.72,1.12-1.36,2.3-1.94,3.49-4.84,2.15-10.34,1.64-15.46,1.15-4.49-.72-5.4-6.22-5.26-9.99.49-5.5-1.31-11.52,1.94-16.43M118.52,429.43c-1.14,6.45-1.34,13.24-.02,19.66,4.94,1.78,10.9,2.16,15.55-.64.33-6.34,1.78-12.93-.78-19.04-4.86-.84-9.9-.87-14.75.02"/>
  <path class="cls-2" d="M170.68,425.01c5.82-.05,11.63-.16,17.4.67,1.89,1.7,5.04,2.85,5.05,5.83.45,5.16.42,10.39,0,15.56-.17,3.98-4.26,6.5-7.9,6.51-4.84-.01-9.69-.04-14.54-.03,0-9.51,0-19.03,0-28.55M174.26,428.83c-.02,6.96-.02,13.93,0,20.9,4.72-.09,9.48.3,14.18-.38,2.43-6.38,2.52-13.71-.02-20.07-4.69-.65-9.44-.45-14.16-.46"/>
  <path class="cls-2" d="M227.01,425.01c1.19,0,2.39-.01,3.6,0,.21,8.04-.62,16.14.77,24.1,4.28,2,9.3,1.58,13.64-.03,1.57-7.87.32-16.07.71-24.07,1.05,0,2.11,0,3.17,0-.07,8.01.1,16.03-.06,24.04-2.42,5.81-9.35,4.87-14.45,4.6-3.35-.02-7.1-2.19-7.35-5.84-.04-7.6.05-15.19-.03-22.79"/>
  <path class="cls-2" d="M283.01,429.63c2.06-2.8,5.2-4.72,8.75-4.64,3.9.08,8.6-.78,11.62,2.36,1.25,2.04.93,4.62,1.06,6.92-1.28,0-2.55.02-3.82.04.06-1.93.09-3.94-1.21-5.51-4.17.11-8.38-.26-12.49.61-1.47,6.21-.89,12.75-.05,19.02,3.89,2.95,9.11,2.11,13.52,1.06.93-1.68.89-3.6.85-5.45,1.05,0,2.1,0,3.16,0-.08,3.13.96,7.96-3.01,9.1-4.63.75-9.56,1.18-14.16-.03-2.15-.44-3.28-2.57-3.82-4.51-1.68-6.18-1.32-12.71-.4-18.98"/>
  <path class="cls-2" d="M431.66,425.39c4.99-.6,11.09-1.41,15.14,2.3,3.37,6.47,2.06,14.21,1.37,21.18-3.4,6.7-11.91,4.88-18,4.57-7.46-2.86-4.84-12.11-5.31-18.27-.91-4.51,2.18-9.23,6.81-9.77M429.48,429.36c-1.07,6.54-1.52,13.52.24,19.95,4.57,1.77,9.49.93,14.18.29,1.14-6.61,2.21-13.78-.14-20.21-4.63-1.05-9.6-.72-14.29-.03"/>
  <path class="cls-2" d="M481.65,425.01c1.67-.01,3.34-.02,5.02-.02,5.01,8.24,9.75,16.57,15.12,24.57.11-8.19.03-16.37.05-24.56,1.05,0,2.1,0,3.17,0-.01,9.51,0,19.03,0,28.55-1.83,0-3.66,0-5.48,0-4.78-8.19-9.71-16.31-14.64-24.41-.16,8.13-.03,16.27-.06,24.41-1.06,0-2.12,0-3.17,0,0-9.52,0-19.03,0-28.55"/>
  <path class="cls-2" d="M541.6,425.68c4.92-.57,10.41-1.82,14.97.75,2.17,1.86,2.24,4.82,2.06,7.47-1.19,0-2.38,0-3.56,0-.19-1.71.68-4.55-1.72-4.91-3.66-.28-7.41-.36-11.01.41-1.29,2.6-.86,5.57,1.24,7.59,4.74.87,10.17-.15,14.34,2.61,2.53,4.18,2.47,12.32-3.33,13.79-4.02.67-8.14.49-12.17.06-3.71-1.35-4.54-5.73-3.99-9.22,1,0,2,0,3.01,0,.09,1.79.44,3.56,1.03,5.26,4.05,1.22,8.39,1.21,12.46.11.64-2.59.71-5.34-.06-7.92-4.69-1.67-10.29.48-14.45-2.8-3.21-3.78-2.71-10.02,1.17-13.18"/>
  <path class="cls-2" d="M335.31,425.76c6.94-.23,13.9-.06,20.84-.11h.61c0,1.1.02,2.21.04,3.33-3,.44-6.05.31-9.07.3-.04,8.09-.02,16.18,0,24.27-1.2,0-2.39,0-3.58.01,0-8.09.01-16.19,0-24.28-2.95-.01-5.89-.02-8.83,0,0-1.18-.01-2.36,0-3.53"/>
  <path class="cls-2" d="M388.93,425.65c.83,0,1.67,0,2.51,0,.01,9.3.01,18.6,0,27.91-.85,0-1.68,0-2.51,0-.01-9.3-.01-18.61,0-27.91"/>
  <path class="cls-2" d="M6.66,475.12c184.23-.01,368.46-.01,552.68,0-.01,1.21-.02,2.43-.03,3.65-184.21-.02-368.42-.02-552.63,0-.01-1.22-.02-2.44-.03-3.65"/>
</svg>